<svg width="100" height="80" viewBox="0 0 100 80" fill="none" xmlns="http://www.w3.org/2000/svg">
<mask id="path-1-inside-1_506_929" fill="white">
<path fill-rule="evenodd" clip-rule="evenodd" d="M0.219654 14.1623C0.359136 13.0417 0.562809 11.9421 0.827341 10.8654L82.3252 21.0101C82.3177 22.1187 82.2456 23.2347 82.1061 24.3553C82.0657 24.6796 82.02 25.0023 81.9689 25.3231L11.8824 42.1685C3.54571 34.8221 -1.09103 24.6918 0.219654 14.1623Z"/>
</mask>
<path fill-rule="evenodd" clip-rule="evenodd" d="M0.219654 14.1623C0.359136 13.0417 0.562809 11.9421 0.827341 10.8654L82.3252 21.0101C82.3177 22.1187 82.2456 23.2347 82.1061 24.3553C82.0657 24.6796 82.02 25.0023 81.9689 25.3231L11.8824 42.1685C3.54571 34.8221 -1.09103 24.6918 0.219654 14.1623Z" fill="#005EEB"/>
<path d="M0.827428 10.8655L0.950952 9.87314L0.0684974 9.76329L-0.143688 10.6269L0.827428 10.8655ZM0.219741 14.1623L1.21208 14.2858L0.219741 14.1623ZM82.3253 21.0101L83.3253 21.0168L83.3313 20.1276L82.4488 20.0178L82.3253 21.0101ZM82.1062 24.3553L81.1139 24.2318V24.2318L82.1062 24.3553ZM81.969 25.3231L82.2027 26.2954L82.8517 26.1395L82.9566 25.4803L81.969 25.3231ZM11.8825 42.1685L11.2213 42.9188L11.6111 43.2622L12.1162 43.1408L11.8825 42.1685ZM-0.143688 10.6269C-0.417502 11.7413 -0.628278 12.8793 -0.772601 14.0388L1.21208 14.2858C1.34672 13.2042 1.54329 12.1429 1.79854 11.1041L-0.143688 10.6269ZM82.4488 20.0178L0.950952 9.87314L0.703904 11.8578L82.2018 22.0024L82.4488 20.0178ZM83.0985 24.4788C83.2429 23.3194 83.3175 22.1644 83.3253 21.0168L81.3253 21.0034C81.3181 22.0731 81.2485 23.1501 81.1139 24.2318L83.0985 24.4788ZM82.9566 25.4803C83.0094 25.1483 83.0568 24.8144 83.0985 24.4788L81.1139 24.2318C81.0749 24.5449 81.0307 24.8563 80.9814 25.166L82.9566 25.4803ZM81.7353 24.3508L11.6488 41.1962L12.1162 43.1408L82.2027 26.2954L81.7353 24.3508ZM-0.772601 14.0388C-2.13157 24.9562 2.68549 35.3969 11.2213 42.9188L12.5436 41.4183C4.40611 34.2474 -0.0503232 24.4275 1.21208 14.2858L-0.772601 14.0388Z" fill="#005EEB" mask="url(#path-1-inside-1_506_929)"/>
<mask id="path-3-inside-2_506_929" fill="white">
<path fill-rule="evenodd" clip-rule="evenodd" d="M5.72751 42.9016C5.8589 44.0024 6.05535 45.1034 6.31924 46.2013C10.7247 64.5304 32.2568 75.0722 54.4127 69.747C76.5685 64.4218 90.9581 45.2462 86.5527 26.9171C86.2888 25.8192 85.9634 24.7492 85.5802 23.7089L5.72751 42.9016Z"/>
</mask>
<path fill-rule="evenodd" clip-rule="evenodd" d="M5.72751 42.9016C5.8589 44.0024 6.05535 45.1034 6.31924 46.2013C10.7247 64.5304 32.2568 75.0722 54.4127 69.747C76.5685 64.4218 90.9581 45.2462 86.5527 26.9171C86.2888 25.8192 85.9634 24.7492 85.5802 23.7089L5.72751 42.9016Z" fill="white"/>
<path d="M5.72751 42.9016L5.49382 41.9293L4.62918 42.1371L4.73456 43.0201L5.72751 42.9016ZM85.5802 23.7089L86.5186 23.3632L86.2111 22.5287L85.3465 22.7366L85.5802 23.7089ZM7.29154 45.9676C7.03681 44.9078 6.84724 43.8453 6.72047 42.7831L4.73456 43.0201C4.87055 44.1596 5.07388 45.299 5.34693 46.435L7.29154 45.9676ZM54.179 68.7747C32.3795 74.0142 11.5284 63.5953 7.29154 45.9676L5.34693 46.435C9.92093 65.4655 32.1342 76.1301 54.6464 70.7193L54.179 68.7747ZM85.5804 27.1508C89.8172 44.7785 75.9785 63.5351 54.179 68.7747L54.6464 70.7193C77.1586 65.3085 92.099 45.7139 87.525 26.6834L85.5804 27.1508ZM84.6419 24.0545C85.0117 25.0584 85.3256 26.091 85.5804 27.1508L87.525 26.6834C87.2519 25.5474 86.9152 24.44 86.5186 23.3632L84.6419 24.0545ZM85.3465 22.7366L5.49382 41.9293L5.96121 43.8739L85.8139 24.6812L85.3465 22.7366Z" fill="#005EEB" mask="url(#path-3-inside-2_506_929)"/>
<line x1="57.2542" y1="29.7185" x2="91.6369" y2="1.23" stroke="#005EEB" stroke-width="2"/>
<line x1="60.3474" y1="29.501" x2="99.4409" y2="3.13559" stroke="#005EEB" stroke-width="2"/>
</svg>
