<svg width="96" height="82" viewBox="0 0 96 82" fill="none" xmlns="http://www.w3.org/2000/svg">
<mask id="path-1-inside-1_335_1641" fill="white">
<path fill-rule="evenodd" clip-rule="evenodd" d="M3.15752 77.0673C2.20575 74.2835 1.45111 71.3724 0.915698 68.3506C-4.1976 39.4921 12.6198 11.4619 38.4785 5.74343C64.3372 0.0250053 89.4449 18.7838 94.5582 47.6424C95.095 50.6719 95.3901 53.6923 95.4584 56.6788L3.15752 77.0673Z"/>
</mask>
<path d="M0.915698 68.3506L2.88502 68.0017L0.915698 68.3506ZM3.15752 77.0673L1.26507 77.7143L1.84338 79.4058L3.5889 79.0202L3.15752 77.0673ZM38.4785 5.74343L38.0467 3.79061L38.4785 5.74343ZM94.5582 47.6424L96.5275 47.2934L94.5582 47.6424ZM95.4584 56.6788L95.8898 58.6317L97.4955 58.277L97.4579 56.633L95.4584 56.6788ZM-1.05363 68.6996C-0.500372 71.822 0.279893 74.8328 1.26507 77.7143L5.04997 76.4202C4.13161 73.7341 3.4026 70.9228 2.88502 68.0017L-1.05363 68.6996ZM38.0467 3.79061C10.9712 9.77813 -6.32187 38.9665 -1.05363 68.6996L2.88502 68.0017C-2.07333 40.0176 14.2685 13.1456 38.9104 7.69625L38.0467 3.79061ZM96.5275 47.2934C91.2521 17.5198 65.2096 -2.21626 38.0467 3.79061L38.9104 7.69625C63.4647 2.26627 87.6377 20.0478 92.5889 47.9913L96.5275 47.2934ZM97.4579 56.633C97.3873 53.5457 97.0822 50.4239 96.5275 47.2934L92.5889 47.9913C93.1078 50.9199 93.3929 53.839 93.4589 56.7245L97.4579 56.633ZM95.027 54.7258L2.72614 75.1143L3.5889 79.0202L95.8898 58.6317L95.027 54.7258Z" fill="#005EEB" mask="url(#path-1-inside-1_335_1641)"/>
<ellipse rx="46.1303" ry="4.17385" transform="matrix(-1 0 0 1 49.2528 76.8915)" fill="#005EEB"/>
<ellipse rx="4.15588" ry="4.63761" transform="matrix(-1 0 0 1 31.5487 4.63761)" fill="#005EEB"/>
</svg>
