<svg width="96" height="82" viewBox="0 0 96 82" fill="none" xmlns="http://www.w3.org/2000/svg">
<mask id="path-1-inside-1_429_830" fill="white">
<path fill-rule="evenodd" clip-rule="evenodd" d="M3.15752 77.35C2.20575 74.5662 1.45111 71.6551 0.915698 68.6333C-4.1976 39.7748 12.6198 11.7446 38.4785 6.02615C64.3372 0.30772 89.4449 19.0665 94.5582 47.9251C95.095 50.9546 95.3901 53.975 95.4584 56.9615L3.15752 77.35Z"/>
</mask>
<path d="M0.915698 68.6333L2.88502 68.2844L0.915698 68.6333ZM3.15752 77.35L1.26507 77.997L1.84338 79.6885L3.5889 79.3029L3.15752 77.35ZM38.4785 6.02615L38.0467 4.07333L38.4785 6.02615ZM94.5582 47.9251L96.5275 47.5761L94.5582 47.9251ZM95.4584 56.9615L95.8898 58.9144L97.4955 58.5597L97.4579 56.9157L95.4584 56.9615ZM-1.05363 68.9823C-0.500372 72.1048 0.279893 75.1155 1.26507 77.997L5.04997 76.703C4.13161 74.0169 3.4026 71.2055 2.88502 68.2844L-1.05363 68.9823ZM38.0467 4.07333C10.9712 10.0608 -6.32187 39.2492 -1.05363 68.9823L2.88502 68.2844C-2.07333 40.3003 14.2685 13.4283 38.9104 7.97897L38.0467 4.07333ZM96.5275 47.5761C91.2521 17.8025 65.2096 -1.93354 38.0467 4.07333L38.9104 7.97897C63.4647 2.54898 87.6377 20.3305 92.5889 48.274L96.5275 47.5761ZM97.4579 56.9157C97.3873 53.8284 97.0822 50.7066 96.5275 47.5761L92.5889 48.274C93.1078 51.2026 93.3929 54.1217 93.4589 57.0072L97.4579 56.9157ZM95.027 55.0086L2.72614 75.3971L3.5889 79.3029L95.8898 58.9144L95.027 55.0086Z" fill="#005EEB" mask="url(#path-1-inside-1_429_830)"/>
<mask id="path-3-inside-2_429_830" fill="white">
<path fill-rule="evenodd" clip-rule="evenodd" d="M3.15752 77.35C2.20575 74.5662 1.45111 71.6551 0.915699 68.6333C-4.1976 39.7748 12.6198 11.7446 38.4785 6.02615C64.3372 0.30772 89.4449 19.0665 94.5582 47.9251C95.095 50.9546 95.3901 53.975 95.4584 56.9615L3.15752 77.35Z"/>
</mask>
<path fill-rule="evenodd" clip-rule="evenodd" d="M3.15752 77.35C2.20575 74.5662 1.45111 71.6551 0.915699 68.6333C-4.1976 39.7748 12.6198 11.7446 38.4785 6.02615C64.3372 0.30772 89.4449 19.0665 94.5582 47.9251C95.095 50.9546 95.3901 53.975 95.4584 56.9615L3.15752 77.35Z" fill="#005EEB"/>
<path d="M0.915699 68.6333L2.88502 68.2844L0.915699 68.6333ZM3.15752 77.35L1.26507 77.997L1.84338 79.6885L3.5889 79.3029L3.15752 77.35ZM38.4785 6.02615L38.0467 4.07333L38.4785 6.02615ZM94.5582 47.9251L96.5275 47.5761H96.5275L94.5582 47.9251ZM95.4584 56.9615L95.8898 58.9144L97.4955 58.5597L97.4579 56.9157L95.4584 56.9615ZM-1.05363 68.9823C-0.500371 72.1048 0.279894 75.1155 1.26507 77.997L5.04997 76.703C4.13161 74.0169 3.4026 71.2055 2.88502 68.2844L-1.05363 68.9823ZM38.0467 4.07333C10.9712 10.0608 -6.32187 39.2492 -1.05363 68.9823L2.88502 68.2844C-2.07333 40.3003 14.2685 13.4283 38.9104 7.97897L38.0467 4.07333ZM96.5275 47.5761C91.2521 17.8025 65.2096 -1.93354 38.0467 4.07333L38.9104 7.97897C63.4647 2.54898 87.6377 20.3305 92.5889 48.274L96.5275 47.5761ZM97.4579 56.9157C97.3873 53.8284 97.0822 50.7066 96.5275 47.5761L92.5889 48.274C93.1078 51.2026 93.3929 54.1217 93.4589 57.0072L97.4579 56.9157ZM95.027 55.0086L2.72614 75.397L3.5889 79.3029L95.8898 58.9144L95.027 55.0086Z" fill="#005EEB" mask="url(#path-3-inside-2_429_830)"/>
<ellipse rx="46.1303" ry="4.17385" transform="matrix(-1 0 0 1 49.2528 76.8915)" fill="#005EEB"/>
<ellipse rx="4.15588" ry="4.63761" transform="matrix(-1 0 0 1 31.5487 4.63761)" fill="#005EEB"/>
</svg>
